<?xml version="1.0" standalone="no"?><!DOCTYPE svg PUBLIC "-//W3C//DTD SVG 1.1//EN" "http://www.w3.org/Graphics/SVG/1.1/DTD/svg11.dtd"><svg t="1659329198218" class="icon" viewBox="0 0 1024 1024" version="1.1" xmlns="http://www.w3.org/2000/svg" p-id="1796" xmlns:xlink="http://www.w3.org/1999/xlink" width="200" height="200"><defs><style type="text/css"></style></defs><path d="M632.490667 444.074667h-240.981334c-31.061333 0-56.32-25.258667-56.32-56.32V205.482667c0-31.061333 25.258667-56.32 56.32-56.32h240.981334c31.061333 0 56.32 25.258667 56.32 56.32v181.930666c0.341333 31.402667-24.917333 56.661333-56.32 56.661334z" fill="#06CC76" opacity=".6" p-id="1797"></path><path d="M422.570667 801.792H181.248c-31.061333 0-56.32-25.258667-56.32-56.32V563.2c0-31.061333 25.258667-56.32 56.32-56.32h240.981333c31.061333 0 56.32 25.258667 56.32 56.32v181.930667c0.341333 31.402667-24.917333 56.661333-55.978666 56.661333zM842.752 801.792h-240.981333c-31.061333 0-56.32-25.258667-56.32-56.32V563.2c0-31.061333 25.258667-56.32 56.32-56.32h240.981333c31.061333 0 56.32 25.258667 56.32 56.32v181.930667c0 31.402667-25.258667 56.661333-56.32 56.661333z" fill="#06CC76" opacity=".6" p-id="1798"></path><path d="M632.490667 444.074667h-240.981334c-31.061333 0-56.32-25.258667-56.32-56.32V205.482667c0-31.061333 25.258667-56.32 56.32-56.32h240.981334c31.061333 0 56.32 25.258667 56.32 56.32v181.930666c0.341333 31.402667-24.917333 56.661333-56.32 56.661334z" fill="#06CC76" opacity=".6" p-id="1799"></path></svg>