<?xml version="1.0" standalone="no"?><!DOCTYPE svg PUBLIC "-//W3C//DTD SVG 1.1//EN" "http://www.w3.org/Graphics/SVG/1.1/DTD/svg11.dtd"><svg t="1664702152196" class="icon" viewBox="0 0 1024 1024" version="1.1" xmlns="http://www.w3.org/2000/svg" p-id="2728" xmlns:xlink="http://www.w3.org/1999/xlink" width="200" height="200"><path d="M831.146667 771.754667V252.245333c0-60.074667-48.810667-108.885333-108.885334-108.885333H302.08c-60.074667 0-108.885333 48.810667-108.885333 108.885333V771.413333c0 60.074667 48.810667 108.885333 108.885333 108.885334h420.181333c60.074667 0.341333 108.885333-48.469333 108.885334-108.544z" fill="#F33B3D" opacity=".7" p-id="2729"></path><path d="M424.96 437.589333H296.618667c-7.168 0-13.994667 2.730667-19.114667 7.850667-5.12 5.12-7.850667 11.946667-7.850667 19.114667 0 15.018667 11.946667 26.965333 26.965334 26.965333h128.341333c7.168 0 13.994667-2.730667 19.114667-7.850667 5.12-5.12 7.850667-11.946667 7.850666-19.114666 0-15.018667-11.946667-26.965333-26.965333-26.965334zM496.298667 347.477333H296.618667c-7.168 0-13.994667 2.730667-19.114667 7.850667-5.12 5.12-7.850667 11.946667-7.850667 19.114667 0 15.018667 11.946667 26.965333 26.965334 26.965333h200.021333c7.168 0 13.994667-2.730667 19.114667-7.850667 5.12-5.12 7.850667-11.946667 7.850666-19.114666-0.341333-15.018667-12.288-26.965333-27.306666-26.965334zM607.914667 257.365333H295.253333c-7.168 0-13.994667 2.730667-19.114666 7.850667-5.12 5.12-7.850667 11.946667-7.850667 19.114667 0 15.018667 11.946667 26.965333 26.965333 26.965333h312.661334c7.168 0 13.994667-2.730667 19.114666-7.850667 5.12-5.12 7.850667-11.946667 7.850667-19.114666 0-14.677333-12.288-26.965333-26.965333-26.965334z" fill="#FFFFFF" p-id="2730"></path><path d="M660.821333 718.165333m-122.197333 0a122.197333 122.197333 0 1 0 244.394667 0 122.197333 122.197333 0 1 0-244.394667 0Z" fill="#F33B3D" opacity=".7" p-id="2731"></path><path d="M733.525333 661.845333c-3.413333-3.413333-8.192-5.461333-13.312-5.461333s-9.898667 2.048-13.312 5.461333l-66.218666 66.218667-33.792-33.792c-3.413333-3.413333-8.192-5.461333-13.312-5.461333s-9.557333 2.048-13.312 5.461333c-3.413333 3.413333-5.461333 8.192-5.461334 13.312s2.048 9.898667 5.461334 13.312l44.714666 44.714667c4.096 4.096 9.898667 6.485333 15.701334 6.485333 5.802667 0 11.605333-2.389333 15.701333-6.485333l77.141333-77.141334c3.413333-3.413333 5.461333-8.192 5.461334-13.312s-2.048-9.898667-5.461334-13.312z" fill="#FFFFFF" p-id="2732"></path></svg>