<?xml version="1.0" standalone="no"?><!DOCTYPE svg PUBLIC "-//W3C//DTD SVG 1.1//EN" "http://www.w3.org/Graphics/SVG/1.1/DTD/svg11.dtd"><svg t="1683272433751" class="icon" viewBox="0 0 1024 1024" version="1.1" xmlns="http://www.w3.org/2000/svg" p-id="1962" xmlns:xlink="http://www.w3.org/1999/xlink" width="200" height="200"><path d="M110.250667 452.608c20.138667 0 36.522667 15.018667 36.522666 33.450667v133.802666c0 18.432-16.384 33.450667-36.522666 33.450667-20.138667 0-36.522667-15.018667-36.522667-33.450667v-134.144c0-18.090667 16.384-33.109333 36.522667-33.109333zM913.749333 452.608c20.138667 0 36.522667 15.018667 36.522667 33.450667v133.802666c0 18.432-16.384 33.450667-36.522667 33.450667-20.138667 0-36.522667-15.018667-36.522666-33.450667v-133.802666c0-18.432 16.384-33.450667 36.522666-33.450667z" fill="#635DF7" opacity=".6" p-id="1963"></path><path d="M110.250667 452.608c20.138667 0 36.522667 15.018667 36.522666 33.450667v133.802666c0 18.432-16.384 33.450667-36.522666 33.450667-20.138667 0-36.522667-15.018667-36.522667-33.450667v-134.144c0-18.090667 16.384-33.109333 36.522667-33.109333zM913.749333 452.608c20.138667 0 36.522667 15.018667 36.522667 33.450667v133.802666c0 18.432-16.384 33.450667-36.522667 33.450667-20.138667 0-36.522667-15.018667-36.522666-33.450667v-133.802666c0-18.432 16.384-33.450667 36.522666-33.450667zM750.933333 854.698667H273.066667c-59.733333 0-107.861333-48.469333-107.861334-107.861334v-368.64c0-59.733333 48.469333-107.861333 107.861334-107.861333h202.410666s0.341333 0 0.341334-0.341333v-54.613334s0-0.341333-0.341334-0.341333H440.32c-19.114667 0-35.84-13.994667-37.546667-33.109333-2.048-21.504 15.018667-39.936 36.181334-39.936H583.68c19.114667 0 35.84 13.994667 37.546667 33.109333 2.048 21.504-15.018667 39.936-36.181334 39.936h-36.522666v54.613333s0 0.341333 0.341333 0.341334H750.933333c59.733333 0 107.861333 48.469333 107.861334 107.861333v368.64c0.341333 59.733333-48.128 108.202667-107.861334 108.202667z" fill="#635DF7" opacity=".6" p-id="1964"></path><path d="M648.874667 617.130667c35.157333 0 63.829333-28.672 63.829333-63.829334 0-35.157333-28.672-63.829333-63.829333-63.829333-35.157333 0-63.829333 28.672-63.829334 63.829333 0 35.157333 28.672 63.829333 63.829334 63.829334zM375.125333 617.130667c35.157333 0 63.829333-28.672 63.829334-63.829334 0-35.157333-28.672-63.829333-63.829334-63.829333-35.157333 0-63.829333 28.672-63.829333 63.829333-0.341333 35.157333 28.330667 63.829333 63.829333 63.829334z" fill="#FFFFFF" p-id="1965"></path></svg>