<?xml version="1.0" standalone="no"?><!DOCTYPE svg PUBLIC "-//W3C//DTD SVG 1.1//EN" "http://www.w3.org/Graphics/SVG/1.1/DTD/svg11.dtd"><svg t="1682003271371" class="icon" viewBox="0 0 1024 1024" version="1.1" xmlns="http://www.w3.org/2000/svg" p-id="1386" xmlns:xlink="http://www.w3.org/1999/xlink" width="200" height="200"><path d="M726.613333 126.72a32 32 0 0 0-45.226666 0l-533.333334 533.333333a32 32 0 0 0-8.448 14.848l-42.666666 170.666667a32 32 0 0 0 38.826666 38.826667l170.666667-42.666667a32 32 0 0 0 14.848-8.448l533.333333-533.333333a32 32 0 0 0 0-45.226667l-128-128z m-554.666666 682.666667l27.605333-110.378667L704 194.602667 786.773333 277.333333 282.282667 781.781333l-110.336 27.562667z m756.053333 75.946666v-64h-448v64h448z" p-id="1387" fill="#2c2c2c"></path></svg>